<?xml version="1.0" standalone="no"?>
<!DOCTYPE svg PUBLIC "-//W3C//DTD SVG 20010904//EN"
 "http://www.w3.org/TR/2001/REC-SVG-20010904/DTD/svg10.dtd">
<svg version="1.0" xmlns="http://www.w3.org/2000/svg"
 width="1932.000000pt" height="1552.000000pt" viewBox="0 0 1932.000000 1552.000000"
 preserveAspectRatio="xMidYMid meet">

<g transform="translate(0.000000,1552.000000) scale(0.100000,-0.100000)"
fill="#000000" stroke="none">
<path d="M6010 4053 c-1646 -59 -3411 -468 -4838 -1119 -234 -106 -300 -147
-354 -219 -126 -166 -112 -422 30 -546 72 -64 111 -74 272 -74 130 0 158 4
270 33 76 19 183 57 272 97 152 67 197 82 118 40 -25 -13 -42 -24 -38 -25 3 0
80 29 170 64 194 76 774 268 1084 360 1812 535 3220 662 4829 435 444 -62 833
-138 1606 -313 930 -210 1409 -306 1969 -395 1536 -242 2779 -237 3985 15 312
65 684 174 807 235 148 74 239 241 225 412 -11 134 -103 274 -218 333 -125 63
-229 67 -385 13 -525 -178 -1150 -285 -1928 -329 -438 -25 -792 -9 -1576 71
-867 87 -1581 204 -2281 374 -1491 362 -2333 498 -3309 535 -242 9 -517 10
-710 3z m-3531 -1518 c-9 -9 -391 -146 -396 -142 -2 3 47 23 109 46 62 22 149
54 193 70 77 29 104 36 94 26z m-419 -155 c-8 -5 -19 -10 -25 -10 -5 0 -3 5 5
10 8 5 20 10 25 10 6 0 3 -5 -5 -10z m-205 -80 c-3 -5 -12 -10 -18 -10 -7 0
-6 4 3 10 19 12 23 12 15 0z"/>
<path d="M5755 2794 c-137 -6 -497 -35 -565 -45 -36 -5 -90 -12 -120 -14 -30
-3 -138 -19 -240 -36 -475 -78 -901 -191 -1338 -355 -185 -70 -253 -106 -302
-161 -38 -43 -96 -143 -84 -143 4 0 2 -6 -4 -13 -11 -13 -27 -105 -24 -139 1
-10 2 -30 2 -45 3 -62 61 -199 80 -188 5 3 12 0 16 -6 4 -8 3 -9 -4 -5 -26 16
-10 -12 27 -48 25 -24 44 -35 52 -31 8 5 10 4 5 -3 -9 -14 39 -46 55 -36 7 4
9 3 6 -3 -8 -12 76 -40 151 -49 56 -7 83 -2 212 42 152 52 190 67 190 75 0 5
7 5 17 2 12 -5 14 -3 8 7 -6 10 -4 12 7 7 9 -3 62 10 119 29 483 161 993 259
1564 299 260 18 739 19 1025 1 118 -7 224 -13 235 -14 19 0 290 -30 465 -51
218 -26 606 -89 928 -151 112 -22 207 -39 211 -38 3 1 13 -2 21 -5 8 -3 83
-20 165 -37 83 -17 187 -40 232 -50 96 -24 96 -24 87 -7 -4 6 1 5 12 -4 19
-16 246 -71 291 -71 13 0 23 -4 23 -7 0 -7 114 -34 150 -37 8 -1 22 -4 30 -7
17 -7 251 -64 290 -71 14 -2 32 -7 40 -10 8 -3 26 -8 40 -10 14 -3 81 -18 150
-34 593 -140 1142 -256 1345 -282 39 -5 90 -14 115 -19 90 -20 490 -73 805
-106 499 -53 1392 -57 2030 -9 387 29 987 97 993 113 1 5 13 6 26 4 22 -4 144
13 361 52 44 8 99 18 123 21 23 4 45 11 48 15 3 5 9 7 14 4 5 -3 66 6 137 20
213 42 273 57 268 65 -3 5 4 6 15 3 11 -3 28 -2 37 2 10 4 27 8 38 9 42 4 223
51 220 56 -2 4 4 6 13 6 54 0 73 5 66 16 -5 7 -2 9 9 5 14 -5 356 85 381 101
6 3 17 7 25 9 15 2 107 30 131 40 8 3 17 7 20 7 3 1 47 15 98 31 61 19 88 32
80 38 -9 5 -6 6 7 3 25 -7 258 77 248 89 -5 4 -3 5 3 2 11 -6 34 1 116 36 15
6 24 15 22 19 -3 4 3 5 12 1 13 -5 15 -3 9 7 -5 9 -4 11 4 6 17 -11 84 16 68
27 -8 6 -7 7 5 3 27 -8 323 129 483 224 28 16 59 34 70 39 53 23 165 176 149
203 -4 6 -3 8 3 5 17 -11 37 106 30 177 -7 76 -29 134 -76 203 -26 38 -41 51
-53 47 -10 -3 -18 0 -18 6 0 6 6 8 13 5 6 -4 -7 11 -30 32 -64 58 -150 87
-253 88 -47 0 -94 -4 -105 -9 -11 -5 -28 -11 -39 -13 -30 -6 -136 -65 -136
-76 0 -6 -3 -7 -6 -4 -8 7 -145 -61 -156 -78 -4 -5 -8 -7 -8 -3 0 4 -35 -9
-77 -28 -167 -77 -452 -191 -558 -224 -22 -7 -44 -15 -50 -19 -5 -3 -12 -6
-15 -6 -3 -1 -43 -14 -90 -29 -179 -58 -407 -124 -590 -169 -37 -10 -54 -19
-52 -28 3 -10 0 -11 -8 -3 -8 8 -23 9 -48 3 -80 -20 -399 -90 -427 -94 -16 -3
-73 -14 -125 -26 -52 -11 -106 -20 -119 -20 -13 1 -29 -3 -35 -7 -6 -5 -26 -9
-44 -10 -18 -1 -103 -13 -190 -27 -380 -59 -745 -99 -1242 -136 -387 -28
-1239 -22 -1630 12 -63 5 -139 12 -168 14 -56 5 -292 32 -352 41 -19 2 -84 12
-145 20 -177 24 -467 73 -675 114 -52 11 -108 21 -125 24 -16 3 -39 7 -50 10
-11 3 -105 24 -210 46 -199 43 -515 115 -575 131 -19 5 -93 23 -165 39 -71 17
-148 35 -170 41 -22 5 -51 11 -65 13 -14 2 -32 6 -40 9 -23 8 -284 68 -312 71
-13 1 -28 5 -33 8 -6 3 -37 11 -70 17 -33 7 -73 16 -90 21 -16 4 -75 18 -130
30 -55 11 -109 23 -120 26 -76 18 -256 55 -281 57 -16 2 -36 6 -44 10 -42 17
-730 138 -1035 182 -281 40 -607 75 -890 95 -154 11 -797 20 -940 14z m-2560
-644 c-1 -11 -4 -22 -7 -25 -4 -5 -4 34 1 43 4 8 7 -1 6 -18z m15306 -47 c13
-16 12 -17 -3 -4 -10 7 -18 15 -18 17 0 8 8 3 21 -13z m-506 -313 c-3 -5 -12
-10 -18 -10 -7 0 -6 4 3 10 19 12 23 12 15 0z"/>
<path d="M1700 2230 c-8 -5 -10 -10 -5 -10 6 0 17 5 25 10 8 5 11 10 5 10 -5
0 -17 -5 -25 -10z"/>
</g>
</svg>
